<?xml version="1.0" encoding="UTF-8"?>
<svg xmlns="http://www.w3.org/2000/svg" id="Layer_1" data-name="Layer 1" viewBox="0 0 24 24">
  <path d="M10.449,3c-.245-1.692-1.691-3-3.449-3S3.796,1.308,3.551,3H0v1H3.551c.245,1.692,1.691,3,3.449,3s3.204-1.308,3.449-3h13.551v-1H10.449Zm-3.449,3c-1.378,0-2.5-1.121-2.5-2.5s1.122-2.5,2.5-2.5,2.5,1.121,2.5,2.5-1.122,2.5-2.5,2.5Zm10,2.5c-1.758,0-3.204,1.308-3.449,3H0v1H13.551c.245,1.692,1.691,3,3.449,3s3.204-1.308,3.449-3h3.551v-1h-3.551c-.245-1.692-1.691-3-3.449-3Zm0,6c-1.378,0-2.5-1.121-2.5-2.5s1.122-2.5,2.5-2.5,2.5,1.121,2.5,2.5-1.122,2.5-2.5,2.5Zm-10,2.5c-1.758,0-3.204,1.308-3.449,3H0v1H3.551c.245,1.692,1.691,3,3.449,3s3.204-1.308,3.449-3h13.551v-1H10.449c-.245-1.692-1.691-3-3.449-3Zm0,6c-1.378,0-2.5-1.121-2.5-2.5s1.122-2.5,2.5-2.5,2.5,1.121,2.5,2.5-1.122,2.5-2.5,2.5Z"/>
</svg>
