<?xml version="1.0" encoding="UTF-8"?><svg id="Calque_1" xmlns="http://www.w3.org/2000/svg" xmlns:xlink="http://www.w3.org/1999/xlink" viewBox="0 0 600 400"><defs><style>.cls-1{fill:#fff;}.cls-2{fill:url(#Dégradé_sans_nom_402);}.cls-3{fill:url(#Dégradé_sans_nom_401);}</style><linearGradient id="Dégradé_sans_nom_401" x1="296.49" y1="225.66" x2="460.12" y2="62.03" gradientUnits="userSpaceOnUse"><stop offset="0" stop-color="#1901ff"/><stop offset=".29" stop-color="#6418fc"/><stop offset=".59" stop-color="#ad30fa"/><stop offset=".81" stop-color="#db3ef8"/><stop offset=".91" stop-color="#ed44f8"/></linearGradient><linearGradient id="Dégradé_sans_nom_402" x1="178.22" y1="104.11" x2="307.43" y2="233.32" gradientUnits="userSpaceOnUse"><stop offset="0" stop-color="#00e3ff"/><stop offset=".11" stop-color="#02d0ff"/><stop offset=".35" stop-color="#09a0ff"/><stop offset=".67" stop-color="#1453ff"/><stop offset="1" stop-color="#2100ff"/></linearGradient></defs><path class="cls-3" d="m335.72,184.46c.06.13.12.27.17.4l8.36-18.98h0s27.85-63.2,27.85-63.2c7.93-17.99,15.85-35.98,23.75-53.98,1.9-4.33,5.64-6.81,10.25-6.81.2,0,.41,0,.63.01,1.38.06,2.77.05,4.15.03.68,0,1.35-.01,2.03-.01h27.09s-5.41,13.08-5.41,13.08c-.17.42-.31.75-.45,1.07l-15.37,34.96c-24.29,55.27-48.59,107.54-72.88,162.81-2.68,6.1-7.88,6.76-10,6.76h-.17c-2.07-.03-7.18-.75-9.8-6.71-3.83-8.71-11.12-23.45-14.95-32.16l17.25-20.97,7.49-16.29Z"/><path class="cls-2" d="m327.5,206.38c-16.34,30.57-42.11,48.41-76.58,53-4.2.55-8.74.8-13.54.85-10.74.05-21.48.05-32.22.05h-27.28c-9.89,0-17.88-8.04-17.88-17.88v-25.88c12.56-28.7,25.13-57.29,37.84-85.93l.28,40.97v37.72c0,7.74,6.29,14.04,14.09,13.99,11.34,0,25.98-.1,30.12-.3,20.13-.95,36.32-10.14,48.06-27.33,16.98-24.93,18.13-58.1,3-84.22-12.29-21.23-30.27-31.82-55-32.32-5.3-.1-11.04-.15-17.93-.15h-.5l12.44-27.62c.2-.45.45-.9.75-1.35v-.05c2.85-4.94,8.34-7.94,14.09-7.39,19.68,1.75,37.27,8.54,52.35,20.23,18.78,14.54,31.37,33.97,37.42,57.75,7.79,30.62,4.6,59.5-9.49,85.87Z"/><path class="cls-1" d="m78.32,313.04v-23.52h8.88v60.64h-8.72v-6c-3.73,4.69-8.56,7.04-14.48,7.04-6.24,0-11.39-2.16-15.44-6.48-4.11-4.43-6.16-9.81-6.16-16.16s2.05-11.63,6.16-16c4.05-4.38,9.17-6.56,15.36-6.56,5.71,0,10.51,2.35,14.4,7.04Zm.64,15.52c0-4.05-1.28-7.47-3.84-10.24-2.56-2.83-5.89-4.24-10-4.24s-7.44,1.41-10,4.24c-2.56,2.77-3.84,6.19-3.84,10.24s1.28,7.63,3.84,10.4,5.89,4.16,10,4.16,7.44-1.39,10-4.16,3.84-6.24,3.84-10.4Z"/><path class="cls-1" d="m133.84,313.04v-6h8.48v43.12h-8.48v-5.92c-3.89,4.64-8.8,6.96-14.72,6.96-6.24,0-11.39-2.19-15.44-6.56-4.05-4.38-6.08-9.81-6.08-16.32s2.03-11.79,6.08-16c4.05-4.21,9.2-6.32,15.44-6.32,5.92,0,10.83,2.35,14.72,7.04Zm-13.52,30.08c4,0,7.33-1.41,10-4.24,2.61-2.77,3.92-6.21,3.92-10.32s-1.31-7.47-3.92-10.24c-2.67-2.83-6-4.24-10-4.24s-7.44,1.41-10,4.24c-2.56,2.77-3.84,6.22-3.84,10.32s1.28,7.54,3.84,10.32,5.89,4.16,10,4.16Z"/><path class="cls-1" d="m181.36,340.72l3.04,6.88c-3.2,2.4-7.17,3.6-11.92,3.6s-8.16-1.41-10.56-4.24-3.6-6.91-3.6-12.24v-20.16h-7.44v-7.52h7.52v-15.28h8.72v15.28h14.88v7.52h-14.88v20.32c0,5.49,2.21,8.24,6.64,8.24,2.35,0,4.88-.8,7.6-2.4Z"/><path class="cls-1" d="m225.6,313.04v-6h8.48v43.12h-8.48v-5.92c-3.89,4.64-8.8,6.96-14.72,6.96-6.24,0-11.39-2.19-15.44-6.56-4.05-4.38-6.08-9.81-6.08-16.32s2.03-11.79,6.08-16c4.05-4.21,9.2-6.32,15.44-6.32,5.92,0,10.83,2.35,14.72,7.04Zm-13.52,30.08c4,0,7.33-1.41,10-4.24,2.61-2.77,3.92-6.21,3.92-10.32s-1.31-7.47-3.92-10.24c-2.67-2.83-6-4.24-10-4.24s-7.44,1.41-10,4.24c-2.56,2.77-3.84,6.22-3.84,10.32s1.28,7.54,3.84,10.32c2.56,2.77,5.89,4.16,10,4.16Z"/><path class="cls-1" d="m264.4,337.84l12.32-30.8h9.68l-18.88,43.04h-6.4l-18.88-43.04h9.76l12.4,30.8Z"/><path class="cls-1" d="m335.2,327.76c0,1.39-.11,2.8-.32,4.24h-33.68c.64,3.47,2.17,6.21,4.6,8.24,2.43,2.03,5.67,3.04,9.72,3.04,2.45,0,5.02-.42,7.72-1.28s5-1.97,6.92-3.36l3.68,6.48c-5.39,4-11.6,6-18.64,6-7.58,0-13.32-2.22-17.24-6.64-3.92-4.43-5.88-9.76-5.88-16s2.03-11.87,6.08-16.08c4.11-4.27,9.41-6.4,15.92-6.4s11.31,1.95,15.2,5.84c3.95,3.95,5.92,9.25,5.92,15.92Zm-21.12-14.16c-3.31,0-6.12,1.03-8.44,3.08-2.32,2.06-3.8,4.76-4.44,8.12h25.12c-.38-3.36-1.69-6.06-3.96-8.12-2.27-2.05-5.03-3.08-8.28-3.08Z"/><path class="cls-1" d="m354.24,350.16h-8.8v-43.12h8.64v6.08c1.28-2.24,3.12-4,5.52-5.28,2.4-1.28,5.12-1.92,8.16-1.92,4.75,0,8.75,1.55,12,4.64,3.31,3.15,4.96,7.6,4.96,13.36v26.24h-8.88v-23.76c0-3.89-.93-6.92-2.8-9.08-1.87-2.16-4.38-3.24-7.52-3.24-3.31,0-6.02,1.16-8.12,3.48-2.11,2.32-3.16,5.32-3.16,9v23.6Z"/><path class="cls-1" d="m423.2,340.72l3.04,6.88c-3.2,2.4-7.17,3.6-11.92,3.6s-8.16-1.41-10.56-4.24c-2.4-2.83-3.6-6.91-3.6-12.24v-20.16h-7.44v-7.52h7.52v-15.28h8.72v15.28h14.88v7.52h-14.88v20.32c0,5.49,2.21,8.24,6.64,8.24,2.35,0,4.88-.8,7.6-2.4Z"/><path class="cls-1" d="m452.08,351.2c-5.76,0-10.35-1.68-13.76-5.04s-5.12-7.92-5.12-13.68v-25.44h8.8v25.36c0,3.25.89,5.84,2.68,7.76s4.25,2.88,7.4,2.88,5.68-.93,7.44-2.8c1.76-1.87,2.64-4.48,2.64-7.84v-25.36h8.88v25.44c0,5.87-1.68,10.45-5.04,13.76-3.36,3.31-8,4.96-13.92,4.96Z"/><path class="cls-1" d="m492.24,350.16h-8.8v-43.12h8.4v6.16c2.56-4.85,6.64-7.28,12.24-7.28,1.81,0,3.52.24,5.12.72l-.8,8.56c-1.44-.53-3.01-.8-4.72-.8-3.47,0-6.24,1.18-8.32,3.52-2.08,2.35-3.12,5.74-3.12,10.16v22.08Z"/><path class="cls-1" d="m557.6,327.76c0,1.39-.11,2.8-.32,4.24h-33.68c.64,3.47,2.17,6.21,4.6,8.24,2.43,2.03,5.67,3.04,9.72,3.04,2.45,0,5.02-.42,7.72-1.28s5-1.97,6.92-3.36l3.68,6.48c-5.39,4-11.6,6-18.64,6-7.58,0-13.32-2.22-17.24-6.64-3.92-4.43-5.88-9.76-5.88-16s2.03-11.87,6.08-16.08c4.11-4.27,9.41-6.4,15.92-6.4s11.31,1.95,15.2,5.84c3.95,3.95,5.92,9.25,5.92,15.92Zm-21.12-14.16c-3.31,0-6.12,1.03-8.44,3.08-2.32,2.06-3.8,4.76-4.44,8.12h25.12c-.38-3.36-1.69-6.06-3.96-8.12-2.27-2.05-5.03-3.08-8.28-3.08Z"/></svg>