<svg role="img" aria-label="Logo" class="footer-logo lg-down-mb-sm" xmlns="http://www.w3.org/2000/svg" fill="none" viewBox="0 0 137.95 200.66">
<g clip-path="url(#clip0_5937_7665)">
<path d="M137.81 41.672C136.146 17.841 125.118 -0.80419 113.174 0.0277702C101.231 0.85973 92.9022 20.8637 94.5753 44.6948C94.8804 49.0117 95.7308 53.1345 96.9418 56.9985C85.091 52.9959 74.9411 53.0791 72.9074 57.6549C70.7813 62.4248 78.1672 70.467 89.8794 76.7252C87.4112 78.5833 85.9969 80.7926 86.1541 83.0851C86.5423 88.576 95.7401 92.4123 106.703 91.6451C115.92 90.998 123.232 84.9616 125.275 81.7725C131.505 74.3773 139.02 58.8843 137.819 41.672" fill="white"></path>
<path d="M15.9921 36.9946C7.24723 36.9946 0.166328 44.0848 0.166328 52.8296V145.436C0.166328 154.181 7.25648 161.271 16.0013 161.271H109.042C117.787 161.271 124.877 154.181 124.877 145.436V36.9946H15.9921Z" fill="#0083CA"></path>
<path d="M113.174 0.027732C102.544 0.767252 94.7787 16.6947 94.372 36.9945C94.7695 16.6947 102.544 0.767252 113.174 0.027732ZM137.939 45.4712C137.902 61.1306 131.034 74.9226 125.265 81.7632C125.265 81.7632 125.265 81.7724 125.256 81.7817C131.024 74.9411 137.911 61.1398 137.939 45.4712Z" fill="#FFE099"></path>
<path d="M113.942 0C113.683 0 113.424 0.009244 113.165 0.027732C102.535 0.776496 94.7696 16.6947 94.3628 36.9945H124.859V76.1983C125.635 77.7605 125.922 79.2211 125.645 80.4875C125.626 80.5799 125.608 80.6724 125.571 80.7741C125.524 80.9405 125.46 81.0976 125.395 81.2548C125.256 81.569 125.081 81.8556 124.868 82.1237V82.2069C124.997 82.059 125.127 81.9111 125.256 81.7539C125.256 81.7539 125.256 81.7447 125.266 81.7354C131.034 74.8949 137.902 61.1028 137.939 45.4435V45.3973V45.3418V45.12V45.083C137.939 45.083 137.939 45.009 137.939 44.9721C137.939 43.872 137.893 42.7627 137.81 41.6442C137.597 38.5937 137.227 35.6264 136.728 32.7792C133.391 13.866 124.064 0 113.942 0Z" fill="#FFE099"></path>
<path d="M124.868 36.9946H94.372C94.3257 39.4998 94.3812 42.0696 94.5661 44.6949C94.8711 49.1135 95.7586 53.3288 97.0157 57.2667C99.1511 57.9878 101.351 58.8382 103.56 59.8273C114.173 64.551 122.27 70.9848 124.868 76.2077V37.0039V36.9946ZM124.868 82.1423C124.748 82.2995 124.609 82.4474 124.461 82.5953C124.156 82.9743 123.786 83.381 123.37 83.797C123.851 83.3348 124.35 82.8079 124.868 82.2255V82.1423Z" fill="#8DA38E"></path>
<path d="M89.5374 76.7807C87.1525 78.6202 85.8121 80.7926 85.9692 83.0389C86.3205 88.0584 94.0392 91.6913 103.745 91.6913C104.651 91.6913 105.585 91.6635 106.519 91.5896C113.969 91.0719 120.2 87.0138 123.38 83.7876C121.734 85.3776 120.264 86.265 119.211 86.3205C119.183 86.3205 119.146 86.3205 119.118 86.3205C118.295 86.3205 117.075 85.7936 115.624 84.8045C109.957 84.6288 102.516 82.7893 94.8527 79.3783C93.0039 78.5555 91.2291 77.6774 89.5467 76.7622" fill="#8DA38E"></path>
<path d="M124.461 82.5952C122.927 84.0927 120.107 84.8323 116.474 84.8323C116.188 84.8323 115.901 84.8323 115.615 84.823C117.066 85.8121 118.286 86.339 119.109 86.339C119.137 86.339 119.174 86.339 119.201 86.339C120.255 86.2836 121.725 85.3869 123.37 83.8062C123.786 83.3902 124.147 82.9835 124.461 82.6045" fill="#C9B15C"></path>
<path d="M125.654 80.4966C125.635 80.5983 125.607 80.6907 125.58 80.7831C125.617 80.6815 125.644 80.5798 125.654 80.4966Z" fill="#FED059"></path>
<path d="M81.9204 54.3823C77.3446 54.3823 74.0722 55.547 72.9999 57.9412C70.9015 62.6557 78.0656 70.5593 89.5282 76.7805C92.7636 74.2846 97.9217 72.4081 103.893 71.8072C101.213 67.6289 98.7444 62.7111 97.0066 57.2572C91.3585 55.3529 86.0894 54.373 81.9111 54.373" fill="#8DA38E"></path>
<path d="M124.868 76.2075V78.7589C125.367 79.3505 125.645 79.8774 125.663 80.2656C125.663 80.3396 125.663 80.4135 125.644 80.4967C125.931 79.2303 125.645 77.7698 124.859 76.2075" fill="#FED059"></path>
<path d="M97.0157 57.2666C98.7536 62.7206 101.222 67.6384 103.903 71.8167C104.309 71.7797 104.716 71.7427 105.123 71.715C105.696 71.678 106.26 71.6595 106.814 71.6595C115.245 71.6595 122.52 75.9765 124.868 78.7681V76.2168C122.261 70.9939 114.173 64.5601 103.56 59.8364C101.351 58.8473 99.1511 57.9969 97.0157 57.2758" fill="#C9B15C"></path>
<path d="M125.571 80.7925C125.45 81.1438 125.21 81.5782 124.868 82.0681V82.1513C125.081 81.8833 125.256 81.5875 125.395 81.2824C125.469 81.1253 125.524 80.9589 125.58 80.8017" fill="#FED059"></path>
<path d="M124.868 82.0591C124.748 82.2347 124.609 82.4104 124.461 82.5952C124.609 82.4473 124.748 82.2994 124.868 82.1423V82.0591Z" fill="#C9B15C"></path>
<path d="M103.903 71.8164C97.9309 72.4173 92.7728 74.2938 89.5374 76.7897C91.2198 77.7048 92.9946 78.5738 94.8434 79.4057C102.507 82.8168 109.948 84.6563 115.615 84.832C112.352 82.6041 107.887 78.0376 103.903 71.8256" fill="#C9B15C"></path>
<path d="M124.868 78.7588V82.0681C125.21 81.5782 125.45 81.153 125.571 80.7925C125.598 80.7 125.626 80.5983 125.645 80.5059C125.663 80.4227 125.663 80.3488 125.663 80.2748C125.645 79.8773 125.367 79.3597 124.868 78.768" fill="#FDC82F"></path>
<path d="M106.815 71.6503C106.251 71.6503 105.687 71.6688 105.123 71.7058C104.716 71.7335 104.309 71.7705 103.903 71.8075C107.896 78.0194 112.361 82.586 115.615 84.8138C115.911 84.8138 116.197 84.823 116.475 84.823C120.107 84.823 122.918 84.0835 124.461 82.586C124.609 82.4011 124.748 82.2255 124.868 82.0498V78.7405C122.511 75.958 115.245 71.6318 106.815 71.6318" fill="#E2B837"></path>
<path d="M116.946 96.1375C116.354 96.1375 115.874 95.6383 115.883 95.0467C115.883 94.455 116.373 93.9466 116.974 93.9744C117.593 93.8912 123.62 91.7928 128.695 85.738C131.348 82.5765 132.956 79.3966 133.835 77.2889C134.066 76.7343 134.694 76.4755 135.249 76.7066C135.804 76.9377 136.062 77.5663 135.831 78.1209C134.888 80.3672 133.178 83.7505 130.35 87.1246C124.739 93.8172 118.009 96.1282 116.955 96.1282" fill="#FCBF00"></path>
<path d="M45.2493 191.203H44.519V197.96H45.2493V191.203Z" fill="#0083CA"></path>
<path d="M39.6199 191.064C38.4551 191.064 37.5677 191.675 37.0962 192.71C36.634 191.665 35.7466 191.064 34.6096 191.064C32.8902 191.064 31.744 192.46 31.744 194.577V197.951H32.4558V194.577C32.4558 192.858 33.2785 191.795 34.6096 191.795C35.9407 191.795 36.7357 192.886 36.7357 194.577V197.951H37.466V194.577C37.466 192.858 38.2887 191.795 39.6291 191.795C40.9695 191.795 41.746 192.886 41.746 194.577V197.951H42.4485V194.577C42.4485 192.451 41.3115 191.064 39.6291 191.064" fill="#0083CA"></path>
<path d="M47.8654 194.337C47.9578 192.765 48.9839 191.712 50.463 191.712C51.942 191.712 53.0051 192.802 53.0605 194.337H47.8746H47.8654ZM50.463 191.064C48.5032 191.064 47.1074 192.534 47.1074 194.577C47.1074 196.62 48.5032 198.09 50.4352 198.09C51.9882 198.09 53.1899 197.156 53.6429 195.714H52.8756C52.5059 196.75 51.5815 197.434 50.4445 197.434C49.0117 197.434 47.9763 196.398 47.8746 194.827H53.7538C53.7723 194.716 53.7816 194.568 53.7816 194.475C53.7816 192.543 52.4319 191.074 50.4722 191.074" fill="#0083CA"></path>
<path d="M44.8796 188.365C44.5561 188.365 44.3527 188.596 44.3527 188.901C44.3527 189.206 44.5561 189.438 44.8796 189.438C45.2031 189.438 45.4065 189.197 45.4065 188.901C45.4065 188.606 45.2031 188.365 44.8796 188.365Z" fill="#0083CA"></path>
<path d="M3.33708 197.36C1.8488 197.36 0.711788 196.139 0.711788 194.577C0.711788 193.107 1.64543 191.795 3.33708 191.795C5.02874 191.795 5.93465 193.107 5.93465 194.577C5.93465 196.149 4.82537 197.36 3.33708 197.36ZM3.33708 191.064C1.32189 191.064 0 192.58 0 194.577V200.66H0.721032V196.481C1.26643 197.452 2.23705 198.09 3.42028 198.09C5.26908 198.09 6.66492 196.592 6.66492 194.577C6.66492 192.562 5.25984 191.064 3.33708 191.064Z" fill="#0083CA"></path>
<path d="M11.1852 197.36C9.64148 197.36 8.57842 196.195 8.57842 194.577C8.57842 192.959 9.64148 191.795 11.1852 191.795C12.729 191.795 13.7828 192.941 13.7828 194.577C13.7828 196.213 12.7197 197.36 11.1852 197.36ZM11.1852 191.064C9.2255 191.064 7.84814 192.534 7.84814 194.577C7.84814 196.62 9.2255 198.09 11.1852 198.09C13.145 198.09 14.5131 196.602 14.5131 194.577C14.5131 192.553 13.145 191.064 11.1852 191.064Z" fill="#0083CA"></path>
<path d="M23.5722 194.577V197.951H24.2932V194.577C24.2932 192.756 25.2638 191.795 27.1034 191.795V191.064C24.8479 191.064 23.5722 192.331 23.5722 194.577Z" fill="#0083CA"></path>
<path d="M21.2704 194.577C21.2704 196.167 20.2813 197.359 18.9779 197.359C17.6745 197.359 16.6392 196.185 16.6392 194.577V191.203H15.9089V194.577C15.9089 196.592 17.2031 198.089 18.9779 198.089C20.7527 198.089 21.973 196.592 21.973 194.577V191.203H21.2704V194.577Z" fill="#0083CA"></path>
<path d="M94.6494 194.337C94.7418 192.765 95.7679 191.712 97.2469 191.712C98.726 191.712 99.789 192.802 99.8445 194.337H94.6586H94.6494ZM97.2469 191.064C95.2872 191.064 93.8914 192.534 93.8914 194.577C93.8914 196.62 95.2872 198.09 97.2192 198.09C98.7722 198.09 99.9739 197.156 100.427 195.714H99.6596C99.2899 196.75 98.3655 197.434 97.2284 197.434C95.7956 197.434 94.7603 196.398 94.6586 194.827H100.538C100.547 194.716 100.566 194.568 100.566 194.475C100.566 192.543 99.2159 191.074 97.2562 191.074" fill="#0083CA"></path>
<path d="M80.5153 191.203H79.785V197.96H80.5153V191.203Z" fill="#0083CA"></path>
<path d="M75.0983 197.091L72.4453 191.203H71.6688L74.71 197.951H75.4865L78.5186 191.203H77.7513L75.0983 197.091Z" fill="#0083CA"></path>
<path d="M85.2204 197.091L82.5674 191.203H81.7909L84.8322 197.951H85.6087L88.6407 191.203H87.8642L85.2204 197.091Z" fill="#0083CA"></path>
<path d="M68.1005 191.203H67.1946L65.0315 193.967L62.8499 191.203H61.9348L64.5693 194.549L61.8978 197.951H62.7852L65.013 195.113L67.2316 197.951H68.156L65.4752 194.54L68.1005 191.203Z" fill="#0083CA"></path>
<path d="M89.4357 194.577V197.951H90.1567V194.577C90.1567 192.756 91.1274 191.795 92.9669 191.795V191.064C90.7114 191.064 89.4357 192.331 89.4357 194.577Z" fill="#0083CA"></path>
<path d="M80.1547 188.365C79.8312 188.365 79.6278 188.596 79.6278 188.901C79.6278 189.206 79.8312 189.438 80.1547 189.438C80.4783 189.438 80.6817 189.197 80.6817 188.901C80.6817 188.606 80.4783 188.365 80.1547 188.365Z" fill="#0083CA"></path>
<path d="M60.5297 194.577C60.5297 196.167 59.5405 197.359 58.2371 197.359C56.9337 197.359 55.8984 196.185 55.8984 194.577V191.203H55.1681V194.577C55.1681 196.592 56.4623 198.089 58.2371 198.089C60.012 198.089 61.2322 196.592 61.2322 194.577V191.203H60.5297V194.577Z" fill="#0083CA"></path>
<path d="M121.152 178.363V181.737H121.873V178.363C121.873 176.542 122.844 175.58 124.683 175.58V174.85C122.428 174.85 121.152 176.117 121.152 178.363Z" fill="#0083CA"></path>
<path d="M6.20272 181.034H1.04457V172.28H0.342026V181.737H6.20272V181.034Z" fill="#0083CA"></path>
<path d="M50.8974 181.145C49.2058 181.145 48.2721 179.833 48.2721 178.363C48.2721 176.791 49.4091 175.58 50.8974 175.58C52.3857 175.58 53.495 176.801 53.495 178.363C53.495 179.833 52.5244 181.145 50.8974 181.145ZM50.9714 174.85C49.7789 174.85 48.8083 175.488 48.2721 176.459V172.28H47.5511V178.363C47.5511 180.36 48.873 181.876 50.8882 181.876C52.9034 181.876 54.216 180.415 54.216 178.363C54.216 176.311 52.8202 174.85 50.9714 174.85Z" fill="#0083CA"></path>
<path d="M6.09187 174.924H6.7482L7.37679 172.585V172.28H6.52634L6.09187 174.924Z" fill="#0083CA"></path>
<path d="M113.858 178.113C113.951 176.542 114.977 175.488 116.456 175.488C117.935 175.488 118.998 176.579 119.053 178.113H113.868H113.858ZM116.447 174.85C114.487 174.85 113.1 176.32 113.1 178.363C113.1 180.406 114.496 181.876 116.428 181.876C117.981 181.876 119.183 180.942 119.627 179.5H118.859C118.49 180.535 117.565 181.219 116.428 181.219C114.995 181.219 113.96 180.184 113.858 178.612H119.738C119.747 178.501 119.765 178.354 119.765 178.261C119.765 176.329 118.416 174.859 116.456 174.859" fill="#0083CA"></path>
<path d="M101.139 174.85C99.3915 174.85 98.0973 176.348 98.0973 178.363V181.737H98.8091V178.363C98.8091 176.736 99.7797 175.58 101.139 175.58C102.497 175.58 103.431 176.773 103.431 178.363V181.737H104.161V178.363C104.161 176.348 102.876 174.85 101.129 174.85" fill="#0083CA"></path>
<path d="M62.0272 175.497C63.5155 175.497 64.5693 176.588 64.6248 178.123H59.4389C59.5313 176.551 60.5574 175.497 62.0364 175.497M61.9995 181.876C63.5525 181.876 64.7542 180.942 65.1979 179.5H64.4306C64.0609 180.535 63.1365 181.219 61.9995 181.219C60.5666 181.219 59.5313 180.184 59.4296 178.612H65.3088C65.3181 178.502 65.3366 178.354 65.3366 178.261C65.3366 176.329 63.9869 174.859 62.0272 174.859C60.0675 174.859 58.6716 176.329 58.6716 178.372C58.6716 180.415 60.0675 181.885 61.9995 181.885" fill="#0083CA"></path>
<path d="M56.4439 173.223C56.7674 173.223 56.9708 172.983 56.9708 172.687C56.9708 172.391 56.7674 172.151 56.4439 172.151C56.1203 172.151 55.9169 172.382 55.9169 172.687C55.9169 172.992 56.1203 173.223 56.4439 173.223Z" fill="#0083CA"></path>
<path d="M72.0662 181.737H72.7964V178.363C72.7964 176.348 71.5115 174.85 69.7644 174.85C68.0173 174.85 66.7231 176.348 66.7231 178.363V181.737H67.4442V178.363C67.4442 176.736 68.4148 175.58 69.7644 175.58C71.114 175.58 72.0662 176.773 72.0662 178.363V181.737Z" fill="#0083CA"></path>
<path d="M56.8136 174.979H56.0833V181.737H56.8136V174.979Z" fill="#0083CA"></path>
<path d="M21.0116 173.39H20.2813V179.038C20.2813 180.813 21.2427 181.876 23.1839 181.876V181.173C21.6401 181.173 21.0116 180.387 21.0116 179.038V175.71H23.1839V174.98H21.0116V173.39Z" fill="#0083CA"></path>
<path d="M36.7448 178.113C36.8373 176.542 37.8634 175.488 39.3424 175.488C40.8214 175.488 41.8845 176.579 41.94 178.113H36.7541H36.7448ZM39.3424 174.85C37.3827 174.85 35.9868 176.32 35.9868 178.363C35.9868 180.406 37.3827 181.876 39.3147 181.876C40.8677 181.876 42.0694 180.942 42.5223 179.5H41.7551C41.3853 180.535 40.4609 181.219 39.3239 181.219C37.8911 181.219 36.8558 180.184 36.7541 178.612H42.6333C42.6518 178.501 42.661 178.354 42.661 178.261C42.661 176.329 41.3114 174.859 39.3516 174.859" fill="#0083CA"></path>
<path d="M10.8616 175.571C12.5533 175.571 13.4684 176.884 13.4684 178.354C13.4684 179.925 12.3499 181.136 10.8616 181.136C9.37333 181.136 8.26405 179.916 8.26405 178.354C8.26405 176.884 9.22543 175.571 10.8616 175.571ZM10.7877 181.876C11.9339 181.876 12.923 181.238 13.4777 180.267V181.737H14.2079V178.363C14.2079 176.366 12.8676 174.85 10.8709 174.85C8.87416 174.85 7.54302 176.311 7.54302 178.363C7.54302 180.415 8.95735 181.876 10.7877 181.876Z" fill="#0083CA"></path>
<path d="M31.2539 181.145C29.6178 181.145 28.6564 179.833 28.6564 178.363C28.6564 176.791 29.7657 175.58 31.2539 175.58C32.7422 175.58 33.8607 176.801 33.8607 178.363C33.8607 179.833 32.9456 181.145 31.2539 181.145ZM34.6003 178.363V172.28H33.87V176.431C33.3246 175.469 32.354 174.85 31.18 174.85C29.3312 174.85 27.9353 176.348 27.9353 178.363C27.9353 180.378 29.3404 181.876 31.2632 181.876C33.1859 181.876 34.6003 180.36 34.6003 178.363Z" fill="#0083CA"></path>
<path d="M106.482 177.901C106.482 176.505 107.443 175.497 108.82 175.497C110.198 175.497 111.131 176.542 111.131 177.901C111.131 179.26 110.161 180.295 108.82 180.295C107.48 180.295 106.482 179.296 106.482 177.901ZM107.073 180.47C107.563 180.785 108.146 180.96 108.82 180.96C110.595 180.96 111.862 179.676 111.862 177.91C111.862 176.144 110.595 174.859 108.82 174.859C107.046 174.859 105.77 176.126 105.77 177.91C105.77 178.797 106.084 179.555 106.62 180.101C106.093 180.369 105.742 180.97 105.742 181.571C105.742 182.476 106.417 183.087 107.434 183.087H109.745C110.567 183.087 111.122 183.558 111.141 184.251H111.871C111.843 183.114 111.03 182.384 109.819 182.384H107.526C106.888 182.384 106.482 182.06 106.482 181.45C106.482 181.062 106.74 180.665 107.092 180.48" fill="#0083CA"></path>
<path d="M16.3526 178.363C16.3526 176.542 17.3232 175.58 19.1627 175.58V174.85C16.9072 174.85 15.6315 176.117 15.6315 178.363V181.737H16.3526V178.363Z" fill="#0083CA"></path>
<path d="M82.891 178.363V181.737H83.6212V178.363C83.6212 176.643 84.444 175.58 85.7843 175.58C87.1247 175.58 87.9105 176.671 87.9105 178.363V181.737H88.613V178.363C88.613 176.246 87.476 174.85 85.7843 174.85C84.6196 174.85 83.7322 175.46 83.2607 176.496C82.7985 175.451 81.9111 174.85 80.7741 174.85C79.0547 174.85 77.9084 176.246 77.9084 178.363V181.737H78.6202V178.363C78.6202 176.643 79.4429 175.58 80.7741 175.58C82.1052 175.58 82.891 176.671 82.891 178.363Z" fill="#0083CA"></path>
<path d="M93.3274 181.145C91.8391 181.145 90.7298 179.925 90.7298 178.363C90.7298 176.893 91.6912 175.58 93.3274 175.58C94.9636 175.58 95.9342 176.893 95.9342 178.363C95.9342 179.934 94.8157 181.145 93.3274 181.145ZM95.9342 180.267V181.737H96.6645V178.363C96.6645 176.366 95.3241 174.85 93.3274 174.85C91.3307 174.85 89.9996 176.311 89.9996 178.363C89.9996 180.415 91.4232 181.876 93.2442 181.876C94.3905 181.876 95.3796 181.238 95.9342 180.267Z" fill="#0083CA"></path>
<path d="M33.1489 118.998C30.2186 118.998 28.0092 116.622 28.0092 113.47C28.0092 110.724 29.7748 107.942 33.1489 107.942C36.6986 107.942 38.3163 110.808 38.3163 113.47C38.3163 116.622 36.0977 118.998 33.1489 118.998ZM38.3163 120.477H40.0634V113.479C40.0634 109.264 37.1516 106.204 33.1489 106.204C29.1463 106.204 26.2621 109.264 26.2621 113.479C26.2621 117.694 29.2202 120.754 32.9825 120.754C35.1364 120.754 37.0961 119.663 38.3163 117.824V120.486V120.477Z" fill="white"></path>
<path d="M44.4914 147.285L39.1946 135.499H37.318L43.6132 149.494H45.3788L51.6462 135.499H49.7882L44.4914 147.285Z" fill="white"></path>
<path d="M49.0856 120.477L55.3531 106.481H53.495L48.1982 118.258L42.9014 106.481H41.0249L47.32 120.477H49.0856Z" fill="white"></path>
<path d="M19.5233 148.024C17.9796 148.089 16.6854 147.682 15.8534 146.878C15.2156 146.268 14.8828 145.445 14.8828 144.502C14.8828 142.617 16.177 140.99 18.3401 140.13C18.6729 140.491 19.0149 140.823 19.3292 141.138L24.1268 145.741C22.7772 147.137 21.141 147.941 19.5325 148.024M29.1371 139.113L29.1648 138.956H27.3899L27.3715 139.067C27.0664 141.008 26.2899 142.922 25.1806 144.484L20.7805 140.222C18.0443 137.616 17.0367 136.053 17.0367 134.445C17.0367 132.661 18.451 131.422 20.4754 131.422C22.6478 131.422 24.247 133.225 24.3487 135.804V135.933H26.0958V135.804C26.0958 132.457 23.5629 129.74 20.4477 129.74C17.3325 129.74 15.2896 131.626 15.2896 134.325C15.2896 135.804 15.9366 137.283 17.3232 138.965C14.587 140.167 13.1449 142.117 13.1449 144.623C13.1449 147.71 15.5946 149.781 19.2367 149.781C21.3629 149.781 23.526 148.755 25.3378 146.897L28.1664 149.614H30.4959L26.3916 145.649C27.7967 143.763 28.7488 141.507 29.1463 139.122" fill="white"></path>
<path d="M19.1167 120.745C22.01 120.745 24.1084 119.081 24.1084 116.798C24.1084 113.886 21.4369 113.257 19.0889 112.693C17.009 112.203 15.2157 111.778 15.2157 110.04C15.2157 108.765 16.6947 107.729 18.5158 107.729C20.7621 107.729 22.1949 108.866 22.3428 110.771V110.891H24.0714V110.743C23.8311 107.896 21.7697 106.204 18.5435 106.204C15.6502 106.204 13.4686 107.85 13.4686 110.04C13.4686 112.878 16.1124 113.516 18.4511 114.08C20.4663 114.561 22.3613 115.023 22.3613 116.77C22.3613 117.99 21.2335 119.22 19.0889 119.22C16.5006 119.22 14.9569 118.221 14.7442 116.4V116.28H13.0064L13.0249 116.428C13.3207 119.173 15.5392 120.745 19.1167 120.745Z" fill="white"></path>
<path d="M60.9734 141.877C61.2138 138.845 63.2567 136.811 66.1038 136.811C68.951 136.811 71.0771 138.882 71.2343 141.877H60.9642H60.9734ZM66.1038 135.23C62.0827 135.23 59.1616 138.29 59.1616 142.506C59.1616 146.721 62.055 149.781 66.0484 149.781C69.2006 149.781 71.7427 147.895 72.6856 144.853L72.741 144.687H70.9015L70.8737 144.78C70.1342 146.878 68.2947 148.181 66.0576 148.181C63.2474 148.181 61.223 146.166 60.9827 143.143H72.9074L72.9259 143.032C72.9536 142.829 72.9814 142.515 72.9814 142.302C72.9814 138.216 70.0972 135.249 66.1223 135.249" fill="white"></path>
<path d="M55.6397 135.499H53.8926V149.494H55.6397V135.499Z" fill="white"></path>
<path d="M82.7245 113.479C82.7245 116.631 80.774 119.007 78.1857 119.007C75.5974 119.007 73.573 116.687 73.573 113.479V106.481H71.8258V113.479C71.8258 117.62 74.5621 120.754 78.195 120.754C81.8278 120.754 84.4254 117.63 84.4254 113.479V106.481H82.7338V113.479H82.7245Z" fill="white"></path>
<path d="M102.553 112.693C100.473 112.203 98.6704 111.778 98.6704 110.04C98.6704 108.765 100.149 107.729 101.971 107.729C104.217 107.729 105.65 108.866 105.798 110.761V110.882H107.526V110.743C107.286 107.896 105.224 106.204 101.998 106.204C99.1049 106.204 96.9233 107.859 96.9233 110.04C96.9233 112.878 99.5671 113.516 101.906 114.08C103.921 114.561 105.816 115.023 105.816 116.77C105.816 117.99 104.688 119.22 102.544 119.22C99.9554 119.22 98.4116 118.221 98.199 116.4L98.1805 116.28H96.4611L96.4796 116.428C96.7754 119.173 99.0032 120.745 102.571 120.745C105.465 120.745 107.563 119.081 107.563 116.798C107.563 113.886 104.892 113.257 102.544 112.693" fill="white"></path>
<path d="M87.3928 113.479V120.477H89.1122V113.479C89.1122 109.865 91.0442 107.951 94.6956 107.951H94.825V106.204H94.6956C90.0551 106.204 87.3928 108.857 87.3928 113.479Z" fill="white"></path>
<path d="M62.397 107.785C65.2719 107.785 67.3703 109.856 67.5274 112.851H57.2573C57.4977 109.819 59.5499 107.785 62.3878 107.785M68.9787 115.818L69.0342 115.652H67.1946L67.1669 115.744C66.4274 117.842 64.5878 119.146 62.3508 119.146C59.5406 119.146 57.5162 117.131 57.2758 114.108H69.2006L69.2191 113.997C69.2468 113.793 69.2745 113.47 69.2745 113.267C69.2745 109.181 66.3904 106.213 62.4155 106.213C58.4406 106.213 55.4733 109.273 55.4733 113.488C55.4733 117.704 58.3666 120.763 62.36 120.763C65.5122 120.763 68.0543 118.878 68.9972 115.836" fill="white"></path>
<path d="M54.7614 129.74C54.0496 129.74 53.5597 130.248 53.5597 130.969C53.5597 131.69 54.0681 132.199 54.7614 132.199C55.4547 132.199 55.9631 131.681 55.9631 130.969C55.9631 130.257 55.4639 129.74 54.7614 129.74Z" fill="white"></path>
</g>
<defs>
<clipPath id="clip0_5937_7665">
<rect width="137.939" height="200.66" fill="white"></rect>
</clipPath>
</defs>
</svg>